PathFileType	4	(X/Y/Z)	D:\luciana\vassoio.trc
DataRate	CameraRate	NumFrames	NumMarkers	Units	OrigDataRate	OrigDataStartFrame	OrigNumFrames
250.00	250.00	5	20	mm	250.00	553	2051
Frame#	Time	pelvisR			Trunk1			Trunk2			Trunk3			C7			shoulder			upperArm1			upperArm2			upperArm3			elbow			forearm1			forearm2			forearm3			wrist1			wrist2			wrist3			Object1			Hand			Object2			Object3			
		X1	Y1	Z1	X2	Y2	Z2	X3	Y3	Z3	X4	Y4	Z4	X5	Y5	Z5	X6	Y6	Z6	X7	Y7	Z7	X8	Y8	Z8	X9	Y9	Z9	X10	Y10	Z10	X11	Y11	Z11	X12	Y12	Z12	X13	Y13	Z13	X14	Y14	Z14	X15	Y15	Z15	X16	Y16	Z16	X17	Y17	Z17	X18	Y18	Z18	X19	Y19	Z19	X20	Y20	Z20	

552	2.208000	1707.445979	666.000366	734.131217	1485.398173	873.146653	643.608689	1546.645045	819.462359	637.508750	1456.748009	782.226920	635.934114	1551.945806	1131.438613	826.948583	1725.155115	1052.571297	772.293150	1802.258492	879.924774	863.431334	1855.074286	894.853830	810.961366	1807.154059	893.450975	740.666568	1846.874475	762.058198	779.877961	1887.558937	716.549516	712.074220	1835.521698	668.811440	752.834201	1845.035791	774.677098	691.095591	1855.458021	718.543351	570.998311	1831.619263	646.236122	594.667792	1795.305610	762.197375	580.042899	1556.729555	643.191397	471.975386	1825.086117	664.210677	492.876232	1636.541963	622.551382	382.459342	1493.296981	623.298526	384.179354	
553	2.212000	1707.455516	666.012883	734.139204	1485.408187	873.166502	643.623352	1546.655893	819.507182	637.507677	1456.753254	782.274544	635.918498	1551.943421	1131.443143	826.979280	1725.143909	1052.598715	772.337496	1802.257180	879.993737	863.508165	1855.088592	894.965410	811.082721	1807.218552	893.545151	740.751743	1846.979856	762.184203	779.943168	1887.662768	716.820538	712.041855	1835.631609	668.997884	752.707064	1845.151663	775.011599	691.202283	1855.526686	719.124675	570.982814	1831.630707	646.801174	594.523311	1795.449257	762.779832	580.182910	1556.597233	644.062996	471.902311	1825.103283	664.977729	492.740691	1636.606216	623.491526	382.152140	1493.279457	624.183118	384.101599	
554	2.216000	1707.456112	666.018248	734.142363	1485.419035	873.200893	643.647790	1546.659827	819.537580	637.512803	1456.763506	782.316983	635.901093	1551.924706	1131.458163	827.015042	1725.139737	1052.637100	772.388279	1802.247167	880.047202	863.581777	1855.107784	895.080090	811.205328	1807.294369	893.643737	740.838289	1847.090721	762.317657	780.014455	1887.766123	717.077613	712.003767	1835.737228	669.190526	752.575636	1845.281601	775.362968	691.326141	1855.608344	719.723344	570.987105	1831.679106	647.318780	594.397128	1795.576215	763.355732	580.312014	1556.501389	645.070791	471.908391	1825.145841	665.742457	492.628247	1636.701703	624.473810	382.018924	1493.270755	625.066817	384.007931	
555	2.220000	1707.465172	666.015208	734.125078	1485.391498	873.247862	643.674850	1546.656847	819.565535	637.517869	1456.752658	782.362044	635.902464	1551.907778	1131.465912	827.050805	1725.125074	1052.669525	772.422850	1802.241206	880.111396	863.655329	1855.129242	895.201385	811.321020	1807.370067	893.737018	740.927458	1847.205877	762.449741	780.083060	1887.873888	717.346966	711.953759	1835.846663	669.401050	752.445519	1845.418215	775.717437	691.456258	1855.695009	720.358014	570.980668	1831.715703	647.815704	594.259322	1795.693874	763.945103	580.450594	1556.724906	646.052003	471.896261	1825.188518	666.512907	492.525727	1636.670113	625.365138	382.028937	1493.259549	625.920892	383.916676	
556	2.224000	1707.480431	666.017056	734.111905	1485.409975	873.285174	643.694997	1546.658516	819.599986	637.511730	1456.759453	782.393217	635.899723	1551.900268	1131.467342	827.080727	1725.104690	1052.695751	772.463500	1802.250385	880.190670	863.733828	1855.155110	895.332217	811.434329	1807.444453	893.830180	741.021037	1847.323656	762.579620	780.156136	1887.986183	717.614055	711.922705	1835.955024	669.619262	752.311707	1845.551372	776.063323	691.570997	1855.784535	721.007705	570.979893	1831.763268	648.328066	594.084859	1795.805454	764.534712	580.578506	1556.656122	646.844149	471.794724	1825.208426	667.301297	492.398381	1636.525393	626.093507	381.979018	1493.242025	626.756072	383.806229	
